# xmcd
#
# Track frame offsets: 
#        150
#        13975
#        27725
#        42690
#        56405
#        70497
#        86192
#        100545
#        114187
#        127020
#        139947
#        154137
#        182900
#        196702
#        211160
#        226020
#        240990
#
# Disc length: 3387 seconds
#
# Revision: 3
# Processed by: cddbd v1.5.1PL2 Copyright (c) Steve Scherf et al.
# Submitted via: ExactAudioCopy v0.90b4
#
DISCID=eb0d3911
DTITLE=Holiday, Billie - This is Jazz 15
DYEAR=1996
DGENRE=Jazz
TTITLE0=Miss Brown to You
TTITLE1=Easy Living
TTITLE2=These Foolish Things
TTITLE3=Some Other Spring
TTITLE4=I Wished on the Moon
TTITLE5=For Heaven's Sake
TTITLE6=This Year's Kisses
TTITLE7=What a Little Moonlight Can Do
TTITLE8=A Sailboat in the Moonlight
TTITLE9=A Fine Romance
TTITLE10=Mean to Me
TTITLE11=Fine and Mellow
TTITLE12=My Man
TTITLE13=Easy to Love
TTITLE14=Pennies from Heaven
TTITLE15=You've Changed
TTITLE16=God Bless the Child
EXTD=
EXTT0=
EXTT1=
EXTT2=
EXTT3=
EXTT4=
EXTT5=
EXTT6=
EXTT7=
EXTT8=
EXTT9=
EXTT10=
EXTT11=
EXTT12=
EXTT13=
EXTT14=
EXTT15=
EXTT16=
PLAYORDER=
